<svg xmlns="http://www.w3.org/2000/svg" width="54" height="55" fill="none"><g clip-path="url(#a)"><rect width="54" height="54" y=".598" fill="#fff" fill-opacity=".05" rx="27"/><g filter="url(#b)"><path fill="url(#c)" fill-rule="evenodd" d="M27 42.598c8.284 0 15-6.716 15-15 0-8.285-6.716-15-15-15-8.284 0-15 6.715-15 15 0 8.284 6.716 15 15 15Zm4.68-23.013c.227-.809-.558-1.287-1.275-.776l-10.01 7.13c-.778.555-.655 1.659.184 1.659h2.636v-.02h5.137l-4.186 1.476-1.846 6.556c-.227.81.558 1.288 1.275.777l10.01-7.131c.778-.555.656-1.658-.184-1.658h-3.997l2.256-8.013Z" clip-rule="evenodd"/></g></g><rect width="53" height="53" x=".5" y="1.098" stroke="#fff" stroke-opacity=".1" rx="26.5"/><defs><linearGradient id="c" x1="27" x2="27" y1="12.598" y2="42.598" gradientUnits="userSpaceOnUse"><stop stop-color="#fff" stop-opacity=".8"/><stop offset="1" stop-color="#fff" stop-opacity=".5"/></linearGradient><clipPath id="a"><rect width="54" height="54" y=".598" fill="#fff" rx="27"/></clipPath><filter id="b" width="36" height="42" x="9" y="8.848" color-interpolation-filters="sRGB" filterUnits="userSpaceOnUse"><feFlood flood-opacity="0" result="BackgroundImageFix"/><feColorMatrix in="SourceAlpha" result="hardAlpha" values="0 0 0 0 0 0 0 0 0 0 0 0 0 0 0 0 0 0 127 0"/><feMorphology in="SourceAlpha" radius="1.5" result="effect1_dropShadow_14541_230"/><feOffset dy="2.25"/><feGaussianBlur stdDeviation="2.25"/><feComposite in2="hardAlpha" operator="out"/><feColorMatrix values="0 0 0 0 0.141176 0 0 0 0 0.141176 0 0 0 0 0.141176 0 0 0 0.1 0"/><feBlend in2="BackgroundImageFix" result="effect1_dropShadow_14541_230"/><feBlend in="SourceGraphic" in2="effect1_dropShadow_14541_230" result="shape"/></filter></defs></svg>