<svg xmlns="http://www.w3.org/2000/svg" width="64" height="65" fill="none"><g clip-path="url(#a)"><rect width="64" height="64" y=".598" fill="#fff" fill-opacity=".05" rx="32"/><g filter="url(#b)"><path fill="url(#c)" d="M33.001 21.286c-2.127-2.083-5.576-2.083-7.703 0l-7.703 7.543a5.255 5.255 0 0 0 0 7.542l7.703 7.543c2.127 2.082 5.576 2.082 7.703 0l3.676-3.6c-3.06-1.155-5.23-4.062-5.23-7.466 0-3.539 2.346-6.541 5.6-7.596l-.194-.194L33 21.286Z"/><path fill="url(#d)" d="M36.676 40.318a8.304 8.304 0 0 0 2.94.533c4.512 0 8.17-3.582 8.17-8s-3.658-8-8.17-8a8.32 8.32 0 0 0-2.57.404 10.508 10.508 0 0 1-.194 14.89l-.176.173Z" opacity=".7"/></g></g><defs><linearGradient id="c" x1="26.523" x2="26.523" y1="19.724" y2="45.476" gradientUnits="userSpaceOnUse"><stop stop-color="#fff" stop-opacity=".8"/><stop offset="1" stop-color="#fff" stop-opacity=".5"/></linearGradient><linearGradient id="d" x1="42.231" x2="42.231" y1="24.851" y2="40.851" gradientUnits="userSpaceOnUse"><stop stop-color="#fff" stop-opacity=".8"/><stop offset="1" stop-color="#fff" stop-opacity=".5"/></linearGradient><clipPath id="a"><rect width="64" height="64" y=".598" fill="#fff" rx="32"/></clipPath><filter id="b" width="38" height="38" x="13" y="15.848" color-interpolation-filters="sRGB" filterUnits="userSpaceOnUse"><feFlood flood-opacity="0" result="BackgroundImageFix"/><feColorMatrix in="SourceAlpha" result="hardAlpha" values="0 0 0 0 0 0 0 0 0 0 0 0 0 0 0 0 0 0 127 0"/><feMorphology in="SourceAlpha" radius="1.5" result="effect1_dropShadow_14541_277"/><feOffset dy="2.25"/><feGaussianBlur stdDeviation="2.25"/><feComposite in2="hardAlpha" operator="out"/><feColorMatrix values="0 0 0 0 0.141176 0 0 0 0 0.141176 0 0 0 0 0.141176 0 0 0 0.1 0"/><feBlend in2="BackgroundImageFix" result="effect1_dropShadow_14541_277"/><feBlend in="SourceGraphic" in2="effect1_dropShadow_14541_277" result="shape"/></filter></defs></svg>