<svg xmlns="http://www.w3.org/2000/svg" width="68" height="69" fill="none"><g clip-path="url(#a)"><rect width="68" height="68" y=".598" fill="#fff" fill-opacity=".05" rx="34"/><g filter="url(#b)"><path fill="url(#c)" d="m29.5 22.598 3.818 8.181 8.182 3.819-8.182 3.818-3.818 8.182-3.818-8.182-8.182-3.818 8.182-3.819 3.818-8.181Z"/><path fill="url(#d)" d="m32.535 40.094 4.766-.82 2.7 7.324 2.7-7.324 7.692 1.324-4.992-6 4.992-6L42.7 29.92 40 22.598l-2.7 7.323-4.766-.82.783 1.678 8.182 3.819-8.182 3.818-.783 1.678Z" opacity=".5"/></g></g><rect width="67" height="67" x=".5" y="1.098" stroke="#fff" stroke-opacity=".1" rx="33.5"/><defs><linearGradient id="c" x1="29.5" x2="29.5" y1="22.598" y2="46.598" gradientUnits="userSpaceOnUse"><stop stop-color="#fff" stop-opacity=".8"/><stop offset="1" stop-color="#fff" stop-opacity=".5"/></linearGradient><linearGradient id="d" x1="41.464" x2="41.464" y1="22.598" y2="46.598" gradientUnits="userSpaceOnUse"><stop stop-color="#fff" stop-opacity=".8"/><stop offset="1" stop-color="#fff" stop-opacity=".5"/></linearGradient><clipPath id="a"><rect width="68" height="68" y=".598" fill="#fff" rx="34"/></clipPath><filter id="b" width="39" height="42" x="14.5" y="15.848" color-interpolation-filters="sRGB" filterUnits="userSpaceOnUse"><feFlood flood-opacity="0" result="BackgroundImageFix"/><feColorMatrix in="SourceAlpha" result="hardAlpha" values="0 0 0 0 0 0 0 0 0 0 0 0 0 0 0 0 0 0 127 0"/><feMorphology in="SourceAlpha" radius="1.5" result="effect1_dropShadow_14541_217"/><feOffset dy="2.25"/><feGaussianBlur stdDeviation="2.25"/><feComposite in2="hardAlpha" operator="out"/><feColorMatrix values="0 0 0 0 0.141176 0 0 0 0 0.141176 0 0 0 0 0.141176 0 0 0 0.1 0"/><feBlend in2="BackgroundImageFix" result="effect1_dropShadow_14541_217"/><feBlend in="SourceGraphic" in2="effect1_dropShadow_14541_217" result="shape"/></filter></defs></svg>