<svg xmlns="http://www.w3.org/2000/svg" width="1136" height="768" fill="none"><g stroke="#FCFCF4" stroke-opacity=".2" clip-path="url(#a)"><g opacity=".02"><rect width="99" height="99" x=".5" y=".5" rx="11.5"/><rect width="99" height="99" x="124.5" y=".5" rx="11.5"/><rect width="99" height="99" x="248.5" y=".5" rx="11.5"/><rect width="99" height="99" x="372.5" y=".5" rx="11.5"/><rect width="99" height="99" x="496.5" y=".5" rx="11.5"/><rect width="99" height="99" x="620.5" y=".5" rx="11.5"/><rect width="99" height="99" x="744.5" y=".5" rx="11.5"/><rect width="99" height="99" x="868.5" y=".5" rx="11.5"/><rect width="99" height="99" x="992.5" y=".5" rx="11.5"/><rect width="99" height="99" x="1116.5" y=".5" rx="11.5"/></g><g opacity=".06"><rect width="99" height="99" x=".5" y="124.5" rx="11.5"/><rect width="99" height="99" x="124.5" y="124.5" rx="11.5"/><rect width="99" height="99" x="248.5" y="124.5" rx="11.5"/><rect width="99" height="99" x="372.5" y="124.5" rx="11.5"/><rect width="99" height="99" x="496.5" y="124.5" rx="11.5"/><rect width="99" height="99" x="620.5" y="124.5" rx="11.5"/><rect width="99" height="99" x="744.5" y="124.5" rx="11.5"/><rect width="99" height="99" x="868.5" y="124.5" rx="11.5"/><rect width="99" height="99" x="992.5" y="124.5" rx="11.5"/><rect width="99" height="99" x="1116.5" y="124.5" rx="11.5"/></g><g opacity=".08"><rect width="99" height="99" x="-39.5" y="248.5" rx="11.5"/><rect width="99" height="99" x="84.5" y="248.5" rx="11.5"/><rect width="99" height="99" x="208.5" y="248.5" rx="11.5"/><rect width="99" height="99" x="332.5" y="248.5" rx="11.5"/><rect width="99" height="99" x="456.5" y="248.5" rx="11.5"/><rect width="99" height="99" x="580.5" y="248.5" rx="11.5"/><rect width="99" height="99" x="704.5" y="248.5" rx="11.5"/><rect width="99" height="99" x="828.5" y="248.5" rx="11.5"/><rect width="99" height="99" x="952.5" y="248.5" rx="11.5"/><rect width="99" height="99" x="1076.5" y="248.5" rx="11.5"/></g><g opacity=".1"><rect width="99" height="99" x=".5" y="372.5" rx="11.5"/><rect width="99" height="99" x="124.5" y="372.5" rx="11.5"/><rect width="99" height="99" x="248.5" y="372.5" rx="11.5"/><rect width="99" height="99" x="372.5" y="372.5" rx="11.5"/><rect width="99" height="99" x="496.5" y="372.5" rx="11.5"/><rect width="99" height="99" x="620.5" y="372.5" rx="11.5"/><rect width="99" height="99" x="744.5" y="372.5" rx="11.5"/><rect width="99" height="99" x="868.5" y="372.5" rx="11.5"/><rect width="99" height="99" x="992.5" y="372.5" rx="11.5"/><rect width="99" height="99" x="1116.5" y="372.5" rx="11.5"/></g><g opacity=".12"><rect width="99" height="99" x="-39.5" y="496.5" rx="11.5"/><rect width="99" height="99" x="84.5" y="496.5" rx="11.5"/><rect width="99" height="99" x="208.5" y="496.5" rx="11.5"/><rect width="99" height="99" x="332.5" y="496.5" rx="11.5"/><rect width="99" height="99" x="456.5" y="496.5" rx="11.5"/><rect width="99" height="99" x="580.5" y="496.5" rx="11.5"/><rect width="99" height="99" x="704.5" y="496.5" rx="11.5"/><rect width="99" height="99" x="828.5" y="496.5" rx="11.5"/><rect width="99" height="99" x="952.5" y="496.5" rx="11.5"/><rect width="99" height="99" x="1076.5" y="496.5" rx="11.5"/></g><g opacity=".14"><rect width="99" height="99" x=".5" y="620.5" rx="11.5"/><rect width="99" height="99" x="124.5" y="620.5" rx="11.5"/><rect width="99" height="99" x="248.5" y="620.5" rx="11.5"/><rect width="99" height="99" x="372.5" y="620.5" rx="11.5"/><rect width="99" height="99" x="496.5" y="620.5" rx="11.5"/><rect width="99" height="99" x="620.5" y="620.5" rx="11.5"/><rect width="99" height="99" x="744.5" y="620.5" rx="11.5"/><rect width="99" height="99" x="868.5" y="620.5" rx="11.5"/><rect width="99" height="99" x="992.5" y="620.5" rx="11.5"/><rect width="99" height="99" x="1116.5" y="620.5" rx="11.5"/></g><g opacity=".16"><rect width="99" height="99" x=".5" y="744.5" rx="11.5"/><rect width="99" height="99" x="124.5" y="744.5" rx="11.5"/><rect width="99" height="99" x="248.5" y="744.5" rx="11.5"/><rect width="99" height="99" x="372.5" y="744.5" rx="11.5"/><rect width="99" height="99" x="496.5" y="744.5" rx="11.5"/><rect width="99" height="99" x="620.5" y="744.5" rx="11.5"/><rect width="99" height="99" x="744.5" y="744.5" rx="11.5"/><rect width="99" height="99" x="868.5" y="744.5" rx="11.5"/><rect width="99" height="99" x="992.5" y="744.5" rx="11.5"/><rect width="99" height="99" x="1116.5" y="744.5" rx="11.5"/></g></g><defs><clipPath id="a"><path fill="#fff" d="M0 0h1136v968H0z"/></clipPath></defs></svg>