<svg xmlns="http://www.w3.org/2000/svg" width="20" height="20" fill="none"><path stroke="#fff" stroke-linejoin="round" stroke-opacity=".8" stroke-width="1.5" d="m9.835 5.408 1.238-1.238c1.394-1.394 3.219-1.972 5.15-2.067.752-.036 1.127-.055 1.428.246.302.302.283.677.246 1.428-.094 1.932-.672 3.757-2.066 5.15l-1.238 1.239c-1.02 1.02-1.31 1.309-1.096 2.415.212.845.416 1.663-.198 2.277-.745.745-1.425.745-2.17 0L5.143 8.872c-.745-.745-.745-1.425 0-2.17.614-.614 1.432-.41 2.277-.199 1.106.214 1.396-.076 2.415-1.095Z"/><path stroke="#fff" stroke-linecap="round" stroke-linejoin="round" stroke-opacity=".8" stroke-width="2" d="M14.164 5.833h.008"/><path stroke="#fff" stroke-linecap="round" stroke-opacity=".8" stroke-width="1.5" d="m2.084 17.917 4.167-4.167m.833 4.167 1.667-1.667m-6.667-3.333 1.667-1.667"/></svg>